<?xml version="1.0" standalone="no"?>
<!DOCTYPE svg PUBLIC "-//W3C//DTD SVG 1.1//EN" "http://www.w3.org/Graphics/SVG/1.1/DTD/svg11.dtd">
<svg width="266px" height="322px" version="1.1" xmlns="http://www.w3.org/2000/svg" xmlns:xlink="http://www.w3.org/1999/xlink" xml:space="preserve" style="fill-rule:evenodd;clip-rule:evenodd;stroke-linejoin:round;stroke-miterlimit:1.41421;">
    <g>
        <path d="M229.867,4.93333C230.267,7.73333 230.933,33.0667 231.467,61.3333C233.333,167.2 227.467,199.2 201.333,225.467C189.467,237.467 178.533,243.333 162.267,246.267C126.133,252.8 94.2667,236.933 78.6667,204.933C66.2667,179.333 64.6667,164.4 64.6667,76.2667L64.6667,6.66667L29.3333,6.66667L29.3333,60.9333C29.3333,161.6 33.2,192.8 49.3333,223.733C62.8,249.733 84,266.533 112.667,274.133C126.8,277.867 159.2,277.467 175.333,273.467C207.467,265.6 232.667,244.8 247.467,214C258.133,192 262.667,169.2 265.333,126.667C266.8,102.667 267.2,13.0667 265.867,4.93333L264.933,-5.68434e-14L229.067,-5.68434e-14Z" style="fill:rgb(42,52,61);fill-rule:nonzero;"/>
        <path d="M25.3875,168.416C-8.93864,209.524 -5.73715,268.757 32.5382,300.718C70.8135,332.679 129.669,325.264 163.995,284.156C135.281,295.065 94.3029,289.128 63.6146,263.502C32.9264,237.877 19.775,198.615 25.3875,168.416Z" style="fill:rgb(6,192,155);"/>
        <path d="M107.026,143.633L113.222,162.121L133.272,162.121L117.051,173.547L123.247,192.035L107.026,180.609L90.8043,192.035L97.0003,173.547L80.779,162.121L100.83,162.121Z" style="fill:rgb(6,192,155);"/>
        <path d="M29.1535,-2.42125L64.8408,-2.40066L64.6409,9.68925L29.3394,9.66889Z" style="fill:rgb(42,52,61);"/>
    </g>
</svg>
